<?xml version="1.0" standalone="no"?>
<!DOCTYPE svg PUBLIC "-//W3C//DTD SVG 20010904//EN"
 "http://www.w3.org/TR/2001/REC-SVG-20010904/DTD/svg10.dtd">
<svg version="1.0" xmlns="http://www.w3.org/2000/svg"
 width="1280.000000pt" height="1244.000000pt" viewBox="0 0 1280.000000 1244.000000"
 preserveAspectRatio="xMidYMid meet">
<metadata>
Created by potrace 1.15, written by Peter Selinger 2001-2017
</metadata>
<g transform="translate(0.000000,1244.000000) scale(0.100000,-0.100000)"
fill="#000000" stroke="none">
<path d="M5970 11549 c-1601 -81 -3106 -837 -4101 -2059 -603 -740 -992 -1624
-1129 -2561 -68 -462 -68 -1026 0 -1488 226 -1549 1150 -2936 2515 -3776 1116
-686 2447 -972 3755 -805 2037 260 3755 1565 4490 3410 359 901 457 1889 284
2840 -317 1738 -1501 3215 -3169 3955 -817 363 -1734 530 -2645 484z"/>
</g>
</svg>
